<svg  viewBox="0 0 47 47" fill="none" xmlns="http://www.w3.org/2000/svg">
<path d="M23.5 0.583336C10.85 0.583336 0.583344 10.85 0.583344 23.5C0.583344 36.15 10.85 46.4167 23.5 46.4167C36.15 46.4167 46.4167 36.15 46.4167 23.5C46.4167 10.85 36.15 0.583336 23.5 0.583336ZM23.5 7.45834C27.3042 7.45834 30.375 10.5292 30.375 14.3333C30.375 18.1375 27.3042 21.2083 23.5 21.2083C19.6958 21.2083 16.625 18.1375 16.625 14.3333C16.625 10.5292 19.6958 7.45834 23.5 7.45834ZM23.5 40C17.7708 40 12.7063 37.0667 9.75001 32.6208C9.81876 28.0604 18.9167 25.5625 23.5 25.5625C28.0604 25.5625 37.1813 28.0604 37.25 32.6208C34.2938 37.0667 29.2292 40 23.5 40Z"/>
</svg>
