<svg   viewBox="0 0 47 43" fill="none" xmlns="http://www.w3.org/2000/svg">
<path d="M33.8125 0.875C29.825 0.875 25.9979 2.73125 23.5 5.66458C21.0021 2.73125 17.175 0.875 13.1875 0.875C6.12918 0.875 0.583344 6.42083 0.583344 13.4792C0.583344 22.1417 8.37501 29.2 20.1771 39.925L23.5 42.9271L26.8229 39.9021C38.625 29.2 46.4167 22.1417 46.4167 13.4792C46.4167 6.42083 40.8708 0.875 33.8125 0.875ZM23.7292 36.5104L23.5 36.7396L23.2708 36.5104C12.3625 26.6333 5.16668 20.1021 5.16668 13.4792C5.16668 8.89583 8.60418 5.45833 13.1875 5.45833C16.7167 5.45833 20.1542 7.72708 21.3688 10.8667H25.6542C26.8458 7.72708 30.2833 5.45833 33.8125 5.45833C38.3958 5.45833 41.8333 8.89583 41.8333 13.4792C41.8333 20.1021 34.6375 26.6333 23.7292 36.5104Z"  />
</svg>
