<svg viewBox="0 0 41 41" fill="none" xmlns="http://www.w3.org/2000/svg">
<path d="M29.0938 25.6562H27.2833L26.6417 25.0375C28.8875 22.425 30.2396 19.0333 30.2396 15.3437C30.2396 7.11666 23.5708 0.447914 15.3438 0.447914C7.11667 0.447914 0.447922 7.11666 0.447922 15.3437C0.447922 23.5708 7.11667 30.2396 15.3438 30.2396C19.0333 30.2396 22.425 28.8875 25.0375 26.6417L25.6563 27.2833V29.0937L37.1146 40.5292L40.5292 37.1146L29.0938 25.6562ZM15.3438 25.6562C9.63751 25.6562 5.03126 21.05 5.03126 15.3437C5.03126 9.6375 9.63751 5.03125 15.3438 5.03125C21.05 5.03125 25.6563 9.6375 25.6563 15.3437C25.6563 21.05 21.05 25.6562 15.3438 25.6562Z" />
</svg>
